<svg version="1.1"
	width="256" height="256" viewBox="0 0 256 256"
	xmlns="http://www.w3.org/2000/svg">
	<defs>
		<style type="text/css"><![CDATA[
			path {
				fill: rgb(244, 244, 244);
				fill-rule: evenodd;
			}
		]]></style>
	</defs>
  <title>Wormfolder</title>
  <path d="M 16.813559,144.27119 V 80.813559 H 24.40678 32 V 64.542373 48.271186 h 39.59322 39.59322 v 16.271187 16.271186 h 64 64 v 63.457631 63.45762 H 128 16.813559 Z m 202.305081,58.15317 c 7.50187,-3.46233 11.38983,-9.32658 11.38983,-17.17933 0,-4.24107 -4.66308,-13.31283 -6.84308,-13.31283 -0.73034,0 -6.91061,5.59859 -13.73392,12.44132 l -12.40602,12.44132 2.60123,2.76889 c 4.60128,4.89784 12.10335,6.01994 18.99196,2.84063 z m -45.24492,-4.35269 c 7.96487,-4.08463 12.16018,-11.04084 12.16018,-20.16271 0,-26.0228 -36.80492,-30.9114 -43.52617,-5.78135 -2.74556,10.26532 1.96791,21.12733 11.1376,25.6662 6.04334,2.99137 14.70514,3.11035 20.22839,0.27786 z m 44.81261,-36.753 c 10.85144,-5.66885 14.7671,-18.88148 8.9388,-30.16225 -1.20517,-2.33264 -4.24336,-5.6908 -6.75153,-7.46259 -3.75602,-2.65325 -5.84346,-3.28259 -11.83561,-3.56828 -8.52356,-0.40638 -13.55911,1.9036 -19.07235,8.74915 -2.8239,3.50631 -3.38803,5.23806 -3.74096,11.48391 -0.32816,5.80779 0.0422,8.24791 1.76074,11.59987 6.03171,11.76479 18.70292,15.62803 30.70091,9.36019 z M 98.597428,68.773848 c 3.374052,3.169761 5.071192,0.939884 1.874472,-2.462873 l -2.263869,-2.409778 2.281859,-2.281862 c 3.28055,-3.280547 1.47821,-5.559763 -1.892462,-2.393183 L 96,61.666308 93.402572,59.226152 c -3.37067,-3.16658 -5.173012,-0.887364 -1.892465,2.393183 l 2.281862,2.281862 -2.263869,2.409778 c -3.196724,3.402757 -1.499583,5.632634 1.874472,2.462873 L 96,66.333692 Z"/>
  <path d="m 168.19492,189.01695 c -4.24652,-3.73692 -4.66791,-8.36009 -1.14375,-12.54832 6.95865,-8.26989 19.38256,-0.85328 15.22781,9.09043 -2.5063,5.99842 -9.30128,7.66671 -14.08406,3.45789 z"/>
  <path d="m 201.71341,159.50693 c -5.62764,-5.62763 -1.7358,-15.77812 6.04954,-15.77812 4.21597,0 9.72858,5.13018 9.72858,9.05367 0,1.49165 -1.26374,4.21394 -2.8083,6.04955 -3.62924,4.3131 -9.04957,4.59516 -12.96982,0.6749 z"/>
</svg>