<svg version="1.1" width="128" height="128"
	viewbox="0 0 128 128" xmlns="http://www.w3.org/2000/svg">
	<defs>
		<style type="text/css"><![CDATA[
			#paper { fill: rgb(244, 244, 244); }
			#fix, #date { fill: rgb(244, 67, 54); }
			#paper2 { fill: rgb(200, 200, 200); }
		]]></style>
	</defs>
	<title>Tear-off Calendar</title>
	<rect id="paper" x="16" y="16" width="96" height="96"/>
	<rect id="fix" x="16" y="16" width="96" height="24"/>
	<g id="date">
		<path d="m 36.683594,92 c 0,-1.116211 0,-2.232422 0,-3.348633 2.400225,-5.758228 7.330605,-9.895642 12.095947,-13.671386 2.778669,-2.304557 5.90671,-4.796529 6.844757,-8.455834 0.642946,-2.767649 -0.116284,-6.260695 -2.908631,-7.549049 -3.336629,-1.539231 -8.055017,-0.88758 -10.014999,2.491287 -0.999697,0.685641 -0.247575,3.187858 -1.582191,2.948285 -1.407982,-0.130086 -2.815964,-0.260171 -4.223946,-0.390256 0.355367,-3.77509 2.858729,-7.239673 6.392292,-8.657707 3.449455,-1.418156 7.416836,-1.372305 10.961232,-0.327736 3.315457,0.962164 5.893493,3.938504 6.304642,7.376015 0.601282,3.125084 -0.419778,6.346805 -2.327111,8.834037 -4.158642,5.61528 -10.71046,8.835184 -14.962246,14.361569 -0.255319,0.599541 -2.035042,2.416294 -0.818795,2.355228 6.279878,0 12.559757,0 18.839635,0 0,1.344727 0,2.689453 0,4.03418 -8.200195,0 -16.400391,0 -24.600586,0 z"/>
    <path d="m 91.685547,81.637695 c 0.08765,3.58312 -1.563231,7.33962 -4.80542,9.09668 -3.60329,2.00196 -7.960807,2.111284 -11.935169,1.406628 -3.545456,-0.673049 -6.990387,-3.012574 -8.033032,-6.60632 -1.106671,-3.557476 -0.733605,-7.922355 2.107109,-10.590751 1.285196,-1.253169 2.973429,-2.070941 4.736824,-2.376549 -0.895639,-0.454843 -2.221325,-0.743921 -3.092377,-1.501282 -4.483117,-3.20993 -4.61844,-10.717073 -0.279842,-14.112419 3.493384,-2.825125 8.383991,-3.10003 12.62875,-2.228645 3.437532,0.737124 6.714305,3.214586 7.472214,6.784607 1.037834,4.01304 -0.760849,8.918245 -4.804184,10.464477 -0.626598,0.25959 -2.365056,0.530096 -0.720154,0.700378 3.012583,0.637688 5.572082,2.985767 6.342339,5.985352 0.274221,0.966789 0.382861,1.974784 0.382942,2.977844 z M 85.832031,64.129883 c 0.09973,-2.331954 -0.980628,-4.921273 -3.343277,-5.708908 -2.438321,-0.859173 -5.28459,-0.858582 -7.634949,0.273559 -2.680373,1.330231 -3.163239,4.766479 -2.563385,7.413712 0.45789,2.779296 3.238989,4.531113 5.922009,4.539379 2.551478,0.193798 5.634041,-0.384766 6.912632,-2.882366 0.566011,-1.114468 0.673313,-2.404898 0.70697,-3.635376 z m 0.922852,17.05957 c 0.08816,-2.484111 -1.096151,-5.148392 -3.509308,-6.123058 -2.453844,-1.071436 -5.36647,-1.130526 -7.881317,-0.231434 -2.75193,0.92544 -4.262271,3.88395 -4.111633,6.673061 -0.02678,2.641499 1.023984,5.613808 3.647529,6.68264 2.450302,1.020274 5.307864,1.023419 7.820549,0.2234 2.231654,-0.705658 3.643469,-2.877907 3.879685,-5.139953 0.10851,-0.68915 0.154427,-1.387312 0.154495,-2.084656 z"/>
	</g>
	<polygon id="paper2" points="112 80, 80 112, 112 112, 112 80"/>
</svg>