<svg version="1.1"
	viewBox="0 0 128 128"
	fill="none"
	stroke="none"
	stroke-linecap="square"
	stroke-miterlimit="10"
	xmlns:xlink="http://www.w3.org/1999/xlink"
	xmlns="http://www.w3.org/2000/svg">
	<title>Slightly Smiling Face</title>
	<clipPath id="p.0">
		<path d="m0 0l128.0 0l0 128.0l-128.0 0l0 -128.0z" clip-rule="nonzero"/>
	</clipPath>
	<g clip-path="url(#p.0)">
		<path fill="#0c0c0c"
			fill-opacity="0.0"
			d="m0 0l128.0 0l0 128.0l-128.0 0z"
			fill-rule="evenodd"/>
		<path fill="#ffd300"
			d="m16.110237 64.0l0 0c0 -26.448788 21.440975 -47.889763 47.889763 -47.889763l0 0c12.701157 0 24.882103 5.045513 33.863174 14.026587c8.981071 8.981073 14.026588 21.16202 14.026588 33.863174l0 0c0 26.448784 -21.440979 47.889763 -47.889763 47.889763l0 0c-26.448788 0 -47.889763 -21.440979 -47.889763 -47.889763z"
			fill-rule="evenodd"/>
		<path fill="#0c0c0c"
			fill-opacity="0.0"
			d="m36.157482 74.3937l0 0c0 -11.036995 12.465519 -19.98425 27.842518 -19.98425l0 0c15.376999 0 27.842522 8.947254 27.842522 19.98425l0 0c0 11.036995 -12.465523 19.984253 -27.842522 19.984253l0 0c-15.376999 0 -27.842518 -8.947258 -27.842518 -19.984253z"
			fill-rule="evenodd"/>
		<path stroke="#6c3601"
			stroke-width="2.0"
			stroke-linejoin="round"
			stroke-linecap="butt"
			d="m36.157482 74.3937l0 0c0 -11.036995 12.465519 -19.98425 27.842518 -19.98425l0 0c15.376999 0 27.842522 8.947254 27.842522 19.98425l0 0c0 11.036995 -12.465523 19.984253 -27.842522 19.984253l0 0c-15.376999 0 -27.842518 -8.947258 -27.842518 -19.984253z"
			fill-rule="evenodd"/>
		<path fill="#ffd300" 
			d="m21.656168 44.425198l84.69292 0l0 27.49606l-84.69292 0z"
			fill-rule="evenodd"/>
		<path fill="#f4f4f4"
			d="m35.540684 48.732285l0 0c0 -7.1318665 5.654606 -12.913387 12.629921 -12.913387l0 0c3.3496628 0 6.562134 1.3605156 8.930702 3.7822418c2.3685684 2.42173 3.6992188 5.7063026 3.6992188 9.1311455l0 0c0 7.1318665 -5.6546097 12.9133835 -12.629921 12.9133835l0 0c-6.975315 0 -12.629921 -5.781517 -12.629921 -12.9133835z"
			fill-rule="evenodd"/>
		<path fill="#6c3601"
			d="m47.47769 49.417324l0 0c0 -2.7570763 2.2350502 -4.9921265 4.9921265 -4.9921265l0 0c1.3239937 0 2.5937576 0.5259552 3.5299644 1.4621582c0.9362068 0.9362068 1.4621582 2.2059746 1.4621582 3.5299683l0 0c0 2.7570724 -2.2350502 4.9921265 -4.9921227 4.9921265l0 0c-2.7570763 0 -4.9921265 -2.235054 -4.9921265 -4.9921265z"
			fill-rule="evenodd"/>
		<path fill="#f4f4f4"
			d="m68.58268 49.417324l0 0c0 -7.1318665 5.654602 -12.913387 12.629921 -12.913387l0 0c3.3496628 0 6.562134 1.3605156 8.930702 3.7822418c2.3685684 2.42173 3.6992188 5.7063026 3.6992188 9.1311455l0 0c0 7.1318665 -5.6546097 12.9133835 -12.629921 12.9133835l0 0c-6.975319 0 -12.629921 -5.781517 -12.629921 -12.9133835z"
			fill-rule="evenodd"/>
		<path fill="#6c3601"
			d="m81.24672 49.417324l0 0c0 -2.7570763 2.235054 -4.9921265 4.9921265 -4.9921265l0 0c1.3239899 0 2.5937576 0.5259552 3.5299683 1.4621582c0.936203 0.9362068 1.4621582 2.2059746 1.4621582 3.5299683l0 0c0 2.7570724 -2.235054 4.9921265 -4.9921265 4.9921265l0 0c-2.7570724 0 -4.9921265 -2.235054 -4.9921265 -4.9921265z"
			fill-rule="evenodd"/>
	</g>
</svg>