<svg version="1.1"
	viewBox="0 0 128 128"
	fill="none"
	stroke="none"
	stroke-linecap="square"
	stroke-miterlimit="10"
	xmlns:xlink="http://www.w3.org/1999/xlink"
	xmlns="http://www.w3.org/2000/svg">
	<title>Thinking Face</title>
	<clipPath id="p.0">
		<path d="m0 0l128.0 0l0 128.0l-128.0 0l0 -128.0z" clip-rule="nonzero"/>
	</clipPath>
	<g clip-path="url(#p.0)">
		<path fill="#0c0c0c" 
			fill-opacity="0.0"
			d="m0 0l128.0 0l0 128.0l-128.0 0z"
			fill-rule="evenodd"/>
		<path fill="#ffd300"
			d="m16.110237 64.0l0 0c0 -26.448788 21.440975 -47.889763 47.889763 -47.889763l0 0c12.701157 0 24.882103 5.045513 33.863174 14.026587c8.981071 8.981073 14.026588 21.16202 14.026588 33.863174l0 0c0 26.448784 -21.440979 47.889763 -47.889763 47.889763l0 0c-26.448788 0 -47.889763 -21.440979 -47.889763 -47.889763z"
			fill-rule="evenodd"/>
		<path fill="#0c0c0c"
			fill-opacity="0.0"
			d="m36.51706 84.70604l0 0c0 -12.724297 12.430267 -23.039371 27.763779 -23.039371l0 0c15.333511 0 27.763779 10.315075 27.763779 23.039371l0 0c0 12.724289 -12.430267 23.039368 -27.763779 23.039368l0 0c-15.333511 0 -27.763779 -10.315079 -27.763779 -23.039368z"
			fill-rule="evenodd"/>
		<path stroke="#6c3601"
			stroke-width="2.0"
			stroke-linejoin="round"
			stroke-linecap="butt"
			d="m36.51706 84.70604l0 0c0 -12.724297 12.430267 -23.039371 27.763779 -23.039371l0 0c15.333511 0 27.763779 10.315075 27.763779 23.039371l0 0c0 12.724289 -12.430267 23.039368 -27.763779 23.039368l0 0c-15.333511 0 -27.763779 -10.315079 -27.763779 -23.039368z"
			fill-rule="evenodd"/>
		<path fill="#f4f4f4"
			d="m37.207348 41.514435l0 0c0 -6.366493 5.161064 -11.527557 11.527561 -11.527557l0 0c3.0572968 0 5.989376 1.2145061 8.151215 3.3763428c2.1618347 2.1618385 3.3763428 5.093918 3.3763428 8.151215l0 0c0 6.366497 -5.161064 11.527561 -11.527557 11.527561l0 0c-6.366497 0 -11.527561 -5.161064 -11.527561 -11.527561z"
			fill-rule="evenodd"/>
		<path fill="#121212"
			d="m42.204758 36.3757l0 0c0 -2.4526634 1.92482 -4.440943 4.2992096 -4.440943l0 0c1.1402245 0 2.2337456 0.46788216 3.0400047 1.3007221c0.80625916 0.83283997 1.2592087 1.96241 1.2592087 3.1402206l0 0c0 2.4526672 -1.9248238 4.4409447 -4.2992134 4.4409447l0 0c-2.3743896 0 -4.2992096 -1.9882774 -4.2992096 -4.4409447z"
			fill-rule="evenodd"/>
		<path fill="#f4f4f4"
			d="m69.414696 46.910763l0 0c0 -5.4445724 4.4136963 -9.858269 9.858269 -9.858269l0 0c2.6145782 0 5.1220627 1.0386353 6.970848 2.8874207c1.8487854 1.8487816 2.8874207 4.35627 2.8874207 6.970848l0 0c0 5.4445686 -4.4136963 9.858265 -9.858269 9.858265l0 0c-5.4445724 0 -9.858269 -4.4136963 -9.858269 -9.858265z"
			fill-rule="evenodd"/>
		<path fill="#121212"
			d="m73.58799 43.02231l0 0c0 -2.026493 1.5863953 -3.6692886 3.5433044 -3.6692886l0 0c0.93974304 0 1.8409958 0.38658524 2.5055008 1.0747108c0.6644974 0.6881256 1.0378113 1.6214218 1.0378113 2.5945778l0 0c0 2.026497 -1.5863953 3.6692924 -3.543312 3.6692924l0 0c-1.9569092 0 -3.5433044 -1.6427956 -3.5433044 -3.6692924z"
			fill-rule="evenodd"/>
		<path fill="#ffd300"
			d="m27.209993 81.076126c-7.959755 3.2392883 7.265093 16.704727 13.049868 21.656174c5.7847786 4.951439 15.133858 7.3582687 21.658794 8.05249c6.524933 0.6942291 11.567802 -0.6014862 17.490814 -3.8871384c5.923004 -3.2856522 14.48381 -9.671913 18.047241 -15.826775c3.5634308 -6.154854 3.3792648 -19.06649 3.3333359 -21.102356c-0.045936584 -2.0358734 -1.4803162 6.6657867 -3.6089249 8.887138c-2.1286087 2.221344 2.4991226 4.070862 -9.162727 4.440941c-11.661858 0.37007904 -52.848648 -5.459755 -60.808403 -2.2204742z"
			fill-rule="evenodd"/>
		<path stroke="#ffd300"
			stroke-width="1.0"
			stroke-linejoin="round"
			stroke-linecap="butt"
			d="m27.209993 81.076126c-7.959755 3.2392883 7.265093 16.704727 13.049868 21.656174c5.7847786 4.951439 15.133858 7.3582687 21.658794 8.05249c6.524933 0.6942291 11.567802 -0.6014862 17.490814 -3.8871384c5.923004 -3.2856522 14.48381 -9.671913 18.047241 -15.826775c3.5634308 -6.154854 3.3792648 -19.06649 3.3333359 -21.102356c-0.045936584 -2.0358734 -1.4803162 6.6657867 -3.6089249 8.887138c-2.1286087 2.221344 2.4991226 4.070862 -9.162727 4.440941c-11.661858 0.37007904 -52.848648 -5.459755 -60.808403 -2.2204742z"
			fill-rule="evenodd"/>
		<path fill="#ff9900"
			d="m25.050793 82.269455c0.9309292 -3.7569962 2.532671 -5.922325 3.4117718 -9.556938c0.8791027 -3.6346207 0.207798 -10.331352 1.8628349 -12.250771c1.6550369 -1.9194183 6.5155163 -2.5733795 8.067389 0.73425674c1.5518723 3.3076363 -3.1526375 15.844463 1.2438431 19.111568c4.3964844 3.267105 19.342175 0.57250977 25.135052 0.49105072c5.7928696 -0.081459045 7.035736 -1.3472977 9.622192 -0.9797821c2.5864563 0.36751556 4.9137726 1.8371887 5.89653 3.1848755c0.98274994 1.3476868 4.189659 3.5126266 0 4.90123c-4.1896667 1.3886108 -21.51744 2.2460175 -25.137985 3.4304047c-3.6205444 1.1843872 3.1560593 2.2873154 3.4147072 3.6759262c0.2586441 1.3886032 -2.276474 3.348938 -1.8628349 4.6557083c0.41363525 1.3067627 4.189663 2.2047043 4.344654 3.1848755c0.15499115 0.9801636 -3.621521 1.7568893 -3.4147034 2.6961365c0.20681763 0.93924713 4.965599 1.7553482 4.6556168 2.939354c-0.3099861 1.1839981 -2.0158691 3.7153015 -6.515518 4.1646576c-4.499645 0.44935608 -14.999474 -0.08029938 -20.482365 -1.4685135c-5.482891 -1.3882217 -10.345816 -4.205971 -12.414978 -6.8608017c-2.0691624 -2.6548386 -0.36229897 -5.3926697 0 -9.068214c0.36229897 -3.675537 1.2428665 -9.228027 2.1737938 -12.9850235z"
			fill-rule="evenodd"/>
		<path fill="#0c0c0c"
			fill-opacity="0.0"
			d="m35.818897 28.319948c0.57520294 -1.2408485 0.8404236 -5.41144 3.4512138 -7.4450893c2.6107903 -2.0336475 8.673214 -4.7222614 12.2135315 -4.7568016c3.5403175 -0.034540176 7.346695 2.6537457 9.028378 4.5495586c1.6816826 1.895813 0.8847656 5.687765 1.061718 6.8253174"
			fill-rule="evenodd"/>
		<path stroke="#6c3601"
			stroke-width="3.0"
			stroke-linejoin="round"
			stroke-linecap="butt"
			d="m35.818897 28.319948c0.57520294 -1.2408485 0.8404236 -5.41144 3.4512138 -7.4450893c2.6107903 -2.0336475 8.673214 -4.7222614 12.2135315 -4.7568016c3.5403175 -0.034540176 7.346695 2.6537457 9.028378 4.5495586c1.6816826 1.895813 0.8847656 5.687765 1.061718 6.8253174"
			fill-rule="evenodd"/>
		<path fill="#0c0c0c"
			fill-opacity="0.0"
			d="m71.08137 31.65409c1.2029724 -0.32414818 4.2099686 -1.8057747 7.217842 -1.9448833c3.0078735 -0.13910675 8.237976 -0.13954353 10.829399 1.1102371c2.591423 1.2497807 3.9326324 5.3237095 4.719162 6.3884525"
			fill-rule="evenodd"/>
		<path stroke="#6c3601"
			stroke-width="3.0"
			stroke-linejoin="round"
			stroke-linecap="butt"
			d="m71.08137 31.65409c1.2029724 -0.32414818 4.2099686 -1.8057747 7.217842 -1.9448833c3.0078735 -0.13910675 8.237976 -0.13954353 10.829399 1.1102371c2.591423 1.2497807 3.9326324 5.3237095 4.719162 6.3884525"
			fill-rule="evenodd"/>
	</g>
</svg>