<svg version="1.1" width="128" height="128"
  viewbox="0 0 128 128"
  xmlns="http://www.w3.org/2000/svg">
  <defs>
    <style type="text/css"><![CDATA[
			#folder { fill: rgb(246, 170, 126); }
      .bl { fill: rgb(18, 18, 18); }
			.wh { fill: rgb(244, 244, 244); }
		]]></style>
    <clipPath id="mouthClip">
      <rect x="75" y="86" width="24" height="10"/>
    </clipPath>
  </defs>
  <title>Melting Face</title>
  <polygon points="8 104, 8 40, 16 40, 16 24, 56 24, 56 40, 120 40, 120 104, 110 94, 101 116, 97 116, 70 89, 50 113, 47 111" id="folder"/>
  <g class="wh" transform="rotate(45, 48, 32)">
		<rect x="47" y="26" width="2" height="12"/>
		<rect x="42" y="31" width="12" height="2"/>
	</g>
	<g class="wh">
    <circle cx="76" cy="61" r="11"/>
    <circle cx="104" cy="70" r="11"/>
    <ellipse id="mouth" cx="86" cy="86" rx="10" ry="10" clip-path="url(#mouthClip)"/>
  </g>
  <g class="bl">
    <circle cx="80" cy="65" r="6"/>
    <circle cx="100" cy="74" r="6"/>
  </g>
</svg>