<svg version="1.1" width="128" height="128"
  viewbox="0 0 128 128"
  xmlns="http://www.w3.org/2000/svg">
  <defs>
    <style type="text/css"><![CDATA[
      .bl { fill: rgb(18, 18, 18); }
      #body { fill: rgb(249, 173, 129); }
      .red { fill: rgb(197, 6, 7); }
      .wh { fill: rgb(244, 244, 244); }
    ]]></style>
    <clipPath id="mClip">
      <rect x="80" y="82" width="22" height="14"/>
    </clipPath>
  </defs>
  <title>Father Christmas</title>
  <rect width="112" height="64" x="8" y="40" id="body"/>
  <rect width="40" height="16" x="16" y="24" class="wh"/>
  <g class="red" transform="rotate(45, 48, 32)">
		<rect x="47" y="26" width="2" height="12"/>
		<rect x="42" y="31" width="12" height="2"/>
	</g>
  <g class="wh">
    <circle cx="76" cy="64" r="11"/>
    <circle cx="104" cy="64" r="11"/>
    <ellipse class="wh" cx="90" cy="82" rx="10" ry="10" clip-path="url(#mClip)"/>
  </g>
  <g class="bl">
    <circle cx="80" cy="68" r="5"/>
    <circle cx="100" cy="68" r="5"/>
  </g>
  <polygon class="red" points="74 28, 68 8, 26 8, 20 24, 52 24, 46 12, 66 20, 66 28"/>
  <circle cx="70" cy="32" r="7" class="wh"/>
</svg>