<svg version="1.1" width="128" height="128"
  viewbox="0 0 128 128"
  xmlns="http://www.w3.org/2000/svg">
  <defs>
    <style type="text/css"><![CDATA[
      .bl { fill: rgb(18, 18, 18); }
      .body { fill: rgb(66, 66, 66); }
			.wh { fill: rgb(244, 244, 244); }
    ]]></style>
    <clipPath id="mClip">
      <rect x="80" y="86" width="22" height="14"/>
    </clipPath>
  </defs>
  <title>Clapper Board</title>
  <rect width="112" height="64" x="8" y="40" class="body"/>
  <g transform="rotate(350, 10, 32)">
    <rect width="110" height="16" x="10" y="24" class="body"/>
    <g class="wh" transform="rotate(45, 110, 32)">
      <rect x="109" y="26" width="2" height="12"/>
      <rect x="104" y="31" width="12" height="2"/>
    </g>
    <g class="wh">
      <polygon points="36 40, 26 24, 34 24, 44 40"/>
      <polygon points="56 40, 46 24, 54 24, 64 40"/>
      <polygon points="76 40, 66 24, 74 24, 84 40"/>
      <polygon points="96 40, 86 24, 94 24, 104 40"/>
    </g>
  </g>
  <g class="wh">
    <circle cx="76" cy="68" r="11"/>
    <circle cx="104" cy="68" r="11"/>
    <ellipse cx="90" cy="86" rx="10" ry="10" clip-path="url(#mClip)"/>
    <polygon points="36 40, 26 56, 34 56, 44 40"/>
    <polygon points="56 40, 46 56, 54 56, 64 40"/>
    <polygon points="76 40, 66 56, 74 56, 84 40"/>
    <polygon points="96 40, 86 56, 94 56, 104 40"/>
  </g>
  <g class="bl">
    <circle cx="80" cy="72" r="6"/>
    <circle cx="100" cy="72" r="6"/>
    <polygon points="8 56, 8 24, 40 56"/>
  </g>
</svg>