<svg version="1.1" width="128" height="128"
  viewbox="0 0 128 128"
  xmlns="http://www.w3.org/2000/svg">
  <defs>
    <style type="text/css"><![CDATA[
      .bl { fill: rgb(18, 18, 18); }
      #body { fill: rgb(248, 49, 47); }
      line { stroke: rgb(18, 18, 18); stroke-width: 4; }
      #most { fill: rgb(175, 13, 26); }
      .wh { fill: rgb(244, 244, 244); }
    ]]></style>
    <clipPath id="mClip">
      <rect x="80" y="86" width="22" height="12"/>
    </clipPath>
  </defs>
  <title>Japanese Goblin</title>
  <polygon points="8 104, 8 40, 16 40, 16 24, 56 24, 56 40, 120 40, 120 104" id="body"/>
	<g class="wh" transform="rotate(45, 48, 32)">
		<rect x="47" y="26" width="2" height="12"/>
		<rect x="42" y="31" width="12" height="2"/>
	</g>
  <polygon points="65 90, 90 74, 115 90" class="bl"/>
  <g class="wh">
    <circle cx="76" cy="64" r="11"/>
    <circle cx="104" cy="64" r="11"/>
    <ellipse class="wh" cx="90" cy="96" rx="10" ry="10" clip-path="url(#mClip)"/>
  </g>
  <g class="bl">
    <circle cx="80" cy="68" r="5"/>
    <circle cx="100" cy="68" r="5"/>
  </g>
  <rect x="84" y="74" width="42" height="10" id="most"/>
  <line x1="65" y1="45" x2="84" y2="54"/>
  <line x1="115" y1="45" x2="96" y2="54"/>
</svg>